<svg xmlns="http://www.w3.org/2000/svg" width="45.812" height="39.857" viewBox="0 0 45.812 39.857"><defs><style>.a{fill:#fff;}</style></defs><path class="a" d="M14.039,46.66H6.414L4.581,33.269A1.231,1.231,0,0,0,3.2,32H0V57.2H15.118v-9.15C15.118,47.23,14.856,46.66,14.039,46.66Z" transform="translate(0 -17.34)"/><path class="a" d="M80.394,32H78.917a1.231,1.231,0,0,0-1.38,1.269L75.7,46.66H68.078c-.815,0-1.078.57-1.078,1.387V57.2H82.118V32Z" transform="translate(-36.306 -17.34)"/><path class="a" d="M38.294,56.366H36.975V44h9.251a1.609,1.609,0,0,0,0-3.207H40.063l-.122-1.966a.508.508,0,0,0-.232-.385h.115a.089.089,0,0,0,.088-.088v-.5a.088.088,0,0,0-.086-.088.819.819,0,0,0-1.291,0,.087.087,0,0,0-.069.086v.5a.088.088,0,0,0,.088.088h.114a.509.509,0,0,0-.232.385l-.121,1.966h-.293L37.9,38.824a.508.508,0,0,0-.232-.385h.115a.089.089,0,0,0,.088-.088v-.5a.088.088,0,0,0-.086-.088.819.819,0,0,0-1.291,0,.088.088,0,0,0-.069.086v.5a.089.089,0,0,0,.088.088h.114a.509.509,0,0,0-.232.385l-.121,1.966h-.823V35.765h-.383v-.452c0-.292-.181-.315-.237-.315h-.346l-.1-.84a.3.3,0,0,0-.267-.31h-.046a.3.3,0,0,0-.267.29l-.093.86h-.353c-.2,0-.214.251-.2.315v.452h-.383V40.79h-.418V35.766h-.383v-.452c0-.292-.181-.315-.237-.315h-.346l-.1-.84a.3.3,0,0,0-.268-.31h-.046a.3.3,0,0,0-.267.29l-.093.86h-.353c-.2,0-.214.251-.2.315v.452h-.383V40.79H24.059a1.609,1.609,0,0,0,0,3.207h9.709V56.366H32.361a.916.916,0,0,0,0,1.832h5.933a.916.916,0,0,0,0-1.832Zm.6-17.514a.062.062,0,0,1,.055-.051h.481a.063.063,0,0,1,.055.051l.124,1.938h-.834ZM33.226,37.3V36.224h.383v-.766h1v.766h.383V40.79H33.226Z" transform="translate(-12.236 -18.342)"/><path class="a" d="M26.7,0H7V10.537H26.7ZM25.325,9.162H8.374V1.374H25.325Z" transform="translate(-3.793)"/><path class="a" d="M64.6,10.995h9.162a1.605,1.605,0,0,0,1.6-1.6V1.6a1.605,1.605,0,0,0-1.6-1.6H64.6A1.605,1.605,0,0,0,63,1.6V9.392A1.605,1.605,0,0,0,64.6,10.995ZM64.374,1.6a.229.229,0,0,1,.229-.229h9.162a.229.229,0,0,1,.229.229V9.392a.229.229,0,0,1-.229.229H64.6a.229.229,0,0,1-.229-.229Z" transform="translate(-34.138)"/><rect class="a" width="13.987" height="0.736" transform="translate(6.061 3.05)"/><rect class="a" width="13.987" height="0.736" transform="translate(6.061 4.522)"/><rect class="a" width="13.987" height="0.736" transform="translate(6.061 6.731)"/><path class="a" d="M69.139,8.22h0l.27,3.427h3.105l.255-3.24.151-1.888H70.137l-.389-2.207-.207.037.383,2.171H69Zm.693,2.969-.219-2.8a1.449,1.449,0,0,0,.271.025h0a1.565,1.565,0,0,0,.242-.021l.077-.016a1.9,1.9,0,0,0,.2-.051c.026-.008.051-.016.077-.025a2.967,2.967,0,0,0,.284-.117,1.1,1.1,0,0,1,.168-.062c.017-.005.037-.008.055-.012.046-.011.092-.022.142-.029l.055-.006c.054-.007.108-.012.164-.015h.041c.064,0,.128,0,.194,0H71.6q.107.006.214.022l.012,0c.071.011.142.025.211.042l.019,0c.061.016.119.034.176.055l.047.017.044.02-.233,2.968H69.832Zm2.592-4.212-.061.762A2.77,2.77,0,0,0,71.334,7.6l-.04,0c-.071,0-.141.011-.209.021l-.067.01c-.061.011-.12.024-.177.039-.022.006-.045.01-.066.017a1.521,1.521,0,0,0-.213.081c-.069.033-.129.053-.192.077l-.153-.867h2.206Zm-2.42,0,.164.933h-.006A1.286,1.286,0,0,1,70,7.944a1,1,0,0,1-.117,0,.941.941,0,0,1-.13-.007,1.019,1.019,0,0,1-.111-.022c-.023-.006-.047-.015-.069-.022L69.5,6.978H70Z" transform="translate(-37.391 -2.337)"/></svg>