<svg xmlns="http://www.w3.org/2000/svg" width="33.308" height="34.947" viewBox="0 0 33.308 34.947"><defs><style>.a{fill:#2d2d2d;}</style></defs><path class="a" d="M3.813,16.186H5.555a1.643,1.643,0,1,0,0-3.286H3.813a1.643,1.643,0,0,0,0,3.286Z" transform="translate(-1.858 -5.887)"/><path class="a" d="M3.243,26.926H4.985a1.643,1.643,0,1,0,0-3.286H3.243a1.643,1.643,0,1,0,0,3.286Z" transform="translate(-1.6 -10.745)"/><path class="a" d="M3.493,37.656H5.218a1.643,1.643,0,1,0,0-3.286H3.493a1.643,1.643,0,0,0,0,3.286Z" transform="translate(-1.713 -15.598)"/><path class="a" d="M5.985,48.4a1.643,1.643,0,1,0,0-3.286H4.243a1.643,1.643,0,1,0,0,3.286Z" transform="translate(-2.052 -20.455)"/><path class="a" d="M35.494,5.592a5.636,5.636,0,0,0-4.82-4.8A92.883,92.883,0,0,0,9.346.635,5.669,5.669,0,0,0,4.509,5.422a2.38,2.38,0,0,1-.049.345,3.1,3.1,0,0,1,.389,0H6.591A2.952,2.952,0,0,1,7.752,6a.548.548,0,0,1,0-.093A2.372,2.372,0,0,1,9.795,3.878a66.783,66.783,0,0,1,8.6-.5,103.437,103.437,0,0,1,11.836.663,2.355,2.355,0,0,1,2,2.027,75.188,75.188,0,0,1,.668,10.292,95.978,95.978,0,0,1-.893,12.893,2.377,2.377,0,0,1-2.065,2.01,56.721,56.721,0,0,1-7.487.471,125.344,125.344,0,0,1-12.52-.628,2.344,2.344,0,0,1-2.011-1.941,2.979,2.979,0,0,1-1.128.219H5.084a2.7,2.7,0,0,1-.427-.033c0,.055,0,.1,0,.159a5.642,5.642,0,0,0,4.864,4.875,128.055,128.055,0,0,0,12.965.657,60.413,60.413,0,0,0,7.92-.493A5.68,5.68,0,0,0,35.275,29.7a89.728,89.728,0,0,0,.219-24.111Z" transform="translate(-2.894 -0.096)"/><path class="a" d="M22.282,12.17a.668.668,0,0,0-.548.148.641.641,0,0,0-.225.487v5.11a2.859,2.859,0,0,0,1.364,2.415l-.3,4.6h3.505l-.3-4.552a2.837,2.837,0,0,0,1.468-2.459v-5.11a.63.63,0,0,0-.23-.487.641.641,0,0,0-.548-.148.668.668,0,0,0-.548.668V17a.033.033,0,0,1-.033.033h-.876A.027.027,0,0,1,24.988,17V12.838a.674.674,0,0,0-.548-.668.641.641,0,0,0-.548.148.63.63,0,0,0-.23.487V17a.027.027,0,0,1-.033.033h-.756A.033.033,0,0,1,22.841,17V12.838a.668.668,0,0,0-.559-.668Z" transform="translate(-10.605 -5.552)"/><path class="a" d="M39.31,19.887a3.33,3.33,0,0,0,.915-2.541,7.734,7.734,0,0,0-.723-3.16.339.339,0,0,0-.06-.137c-.608-1.21-1.424-1.879-2.306-1.879a2.551,2.551,0,0,0-2.087,1.479v.027c-.066.12-.137.241-.2.372,0,.044-.044.088-.066.142a7.778,7.778,0,0,0-.718,3.155,3.33,3.33,0,0,0,.92,2.541,2.574,2.574,0,0,0,.351.29,2.766,2.766,0,0,0,.405.246l-.268,4.508h3.483l-.279-4.59a2.427,2.427,0,0,0,.279-.159,2.772,2.772,0,0,0,.356-.3ZM36.4,18.825a4.108,4.108,0,0,1-.46-2.947,2.454,2.454,0,0,1,1.43-1.972C36.862,14.509,36.062,15.938,36.4,18.825Z" transform="translate(-16.279 -5.557)"/><rect class="a" width="19.324" height="7.465" rx="3.06" transform="translate(7.772 20.875)"/></svg>