<svg xmlns="http://www.w3.org/2000/svg" width="45.142" height="47.363" viewBox="0 0 45.142 47.363"><defs><style>.a{fill:#fff;}</style></defs><path class="a" d="M4.4,17.354H6.758a2.227,2.227,0,1,0,0-4.454H4.4a2.227,2.227,0,0,0,0,4.454Z" transform="translate(-1.747 -3.396)"/><path class="a" d="M3.827,28.094H6.188a2.227,2.227,0,1,0,0-4.454H3.827a2.227,2.227,0,1,0,0,4.454Z" transform="translate(-1.6 -6.163)"/><path class="a" d="M4.077,38.824H6.415a2.227,2.227,0,1,0,0-4.454H4.077a2.227,2.227,0,0,0,0,4.454Z" transform="translate(-1.664 -8.928)"/><path class="a" d="M7.188,49.564a2.227,2.227,0,1,0,0-4.454H4.827a2.227,2.227,0,1,0,0,4.454Z" transform="translate(-1.858 -11.696)"/><path class="a" d="M46.52,7.545a7.638,7.638,0,0,0-6.532-6.51A125.882,125.882,0,0,0,11.081.827,7.683,7.683,0,0,0,4.527,7.314a3.225,3.225,0,0,1-.067.468,4.194,4.194,0,0,1,.527,0H7.348A4,4,0,0,1,8.921,8.1a.742.742,0,0,1,0-.126A3.214,3.214,0,0,1,11.69,5.221a90.51,90.51,0,0,1,11.662-.676,140.187,140.187,0,0,1,16.041.9A3.192,3.192,0,0,1,42.11,8.19a101.9,101.9,0,0,1,.906,13.948,130.077,130.077,0,0,1-1.21,17.474,3.222,3.222,0,0,1-2.8,2.724,76.873,76.873,0,0,1-10.147.638,169.876,169.876,0,0,1-16.969-.851,3.177,3.177,0,0,1-2.725-2.63,4.038,4.038,0,0,1-1.529.3H5.306a3.659,3.659,0,0,1-.579-.045c0,.074,0,.141,0,.215a7.646,7.646,0,0,0,6.592,6.607,173.55,173.55,0,0,0,17.571.891,81.877,81.877,0,0,0,10.734-.668,7.7,7.7,0,0,0,6.6-6.569,121.606,121.606,0,0,0,.3-32.677Z" transform="translate(-2.337 -0.096)"/><path class="a" d="M22.557,12.174a.906.906,0,0,0-.742.2.869.869,0,0,0-.3.661v6.926a3.875,3.875,0,0,0,1.848,3.274l-.4,6.228h4.751l-.4-6.169A3.845,3.845,0,0,0,29.3,19.961V13.035a.854.854,0,0,0-.312-.661.869.869,0,0,0-.742-.2.906.906,0,0,0-.742.906v5.642a.045.045,0,0,1-.045.045H26.268a.037.037,0,0,1-.045-.045V13.08a.913.913,0,0,0-.742-.906.869.869,0,0,0-.742.2.854.854,0,0,0-.312.661v5.686a.037.037,0,0,1-.045.045H23.358a.045.045,0,0,1-.045-.045V13.08a.906.906,0,0,0-.757-.906Z" transform="translate(-6.731 -3.205)"/><path class="a" d="M41.177,22.629a4.513,4.513,0,0,0,1.24-3.444,10.481,10.481,0,0,0-.98-4.283.46.46,0,0,0-.082-.186c-.824-1.641-1.93-2.546-3.125-2.546a3.457,3.457,0,0,0-2.828,2v.037c-.089.163-.186.327-.275.5,0,.059-.059.119-.089.193a10.541,10.541,0,0,0-.972,4.276,4.513,4.513,0,0,0,1.247,3.444,3.488,3.488,0,0,0,.475.393,3.749,3.749,0,0,0,.549.334l-.364,6.109h4.721l-.379-6.221a3.289,3.289,0,0,0,.379-.215,3.757,3.757,0,0,0,.483-.4Zm-3.942-1.44a5.567,5.567,0,0,1-.624-3.994,3.326,3.326,0,0,1,1.937-2.672C37.859,15.34,36.776,17.277,37.236,21.189Z" transform="translate(-9.963 -3.208)"/><rect class="a" width="26.189" height="10.118" rx="3.06" transform="translate(10.533 28.292)"/></svg>